# Minecraft JSON -> OBJ
# Arquivo original: sulfur_spike_up_base.json

mtllib sulfur_spike_up_base.mtl

v 0.250000 1.000000 0.250000
v 0.750000 1.000000 0.250000
v 0.750000 0.000000 0.250000
v 0.250000 0.000000 0.250000
v 0.750000 1.000000 0.250000
v 0.750000 1.000000 0.750000
v 0.750000 0.000000 0.750000
v 0.750000 0.000000 0.250000
v 0.750000 1.000000 0.750000
v 0.250000 1.000000 0.750000
v 0.250000 0.000000 0.750000
v 0.750000 0.000000 0.750000
v 0.250000 1.000000 0.750000
v 0.250000 1.000000 0.250000
v 0.250000 0.000000 0.250000
v 0.250000 0.000000 0.750000
v 0.250000 1.000000 0.750000
v 0.750000 1.000000 0.750000
v 0.750000 1.000000 0.250000
v 0.250000 1.000000 0.250000
v 0.250000 0.000000 0.250000
v 0.750000 0.000000 0.250000
v 0.750000 0.000000 0.750000
v 0.250000 0.000000 0.750000
v 0.437500 1.187500 0.125000
v 0.625000 1.187500 0.125000
v 0.625000 1.000000 0.125000
v 0.437500 1.000000 0.125000
v 0.625000 1.187500 0.125000
v 0.625000 1.187500 0.312500
v 0.625000 1.000000 0.312500
v 0.625000 1.000000 0.125000
v 0.625000 1.187500 0.312500
v 0.437500 1.187500 0.312500
v 0.437500 1.000000 0.312500
v 0.625000 1.000000 0.312500
v 0.437500 1.187500 0.312500
v 0.437500 1.187500 0.125000
v 0.437500 1.000000 0.125000
v 0.437500 1.000000 0.312500
v 0.437500 1.187500 0.312500
v 0.625000 1.187500 0.312500
v 0.625000 1.187500 0.125000
v 0.437500 1.187500 0.125000
v 0.437500 1.000000 0.125000
v 0.625000 1.000000 0.125000
v 0.625000 0.000000 0.125000
v 0.437500 0.000000 0.125000
v 0.625000 1.000000 0.125000
v 0.625000 1.000000 0.312500
v 0.625000 0.000000 0.312500
v 0.625000 0.000000 0.125000
v 0.625000 1.000000 0.312500
v 0.437500 1.000000 0.312500
v 0.437500 0.000000 0.312500
v 0.625000 0.000000 0.312500
v 0.437500 1.000000 0.312500
v 0.437500 1.000000 0.125000
v 0.437500 0.000000 0.125000
v 0.437500 0.000000 0.312500
v 0.437500 0.000000 0.125000
v 0.625000 0.000000 0.125000
v 0.625000 0.000000 0.250000
v 0.437500 0.000000 0.250000
v 0.437500 1.375000 0.687500
v 0.687500 1.375000 0.687500
v 0.687500 1.000000 0.687500
v 0.437500 1.000000 0.687500
v 0.687500 1.375000 0.687500
v 0.687500 1.375000 0.937500
v 0.687500 1.000000 0.937500
v 0.687500 1.000000 0.687500
v 0.687500 1.375000 0.937500
v 0.437500 1.375000 0.937500
v 0.437500 1.000000 0.937500
v 0.687500 1.000000 0.937500
v 0.437500 1.375000 0.937500
v 0.437500 1.375000 0.687500
v 0.437500 1.000000 0.687500
v 0.437500 1.000000 0.937500
v 0.437500 1.375000 0.937500
v 0.687500 1.375000 0.937500
v 0.687500 1.375000 0.687500
v 0.437500 1.375000 0.687500
v 0.437500 1.000000 0.687500
v 0.687500 1.000000 0.687500
v 0.687500 0.000000 0.687500
v 0.437500 0.000000 0.687500
v 0.687500 1.000000 0.687500
v 0.687500 1.000000 0.937500
v 0.687500 0.000000 0.937500
v 0.687500 0.000000 0.687500
v 0.687500 1.000000 0.937500
v 0.437500 1.000000 0.937500
v 0.437500 0.000000 0.937500
v 0.687500 0.000000 0.937500
v 0.437500 1.000000 0.937500
v 0.437500 1.000000 0.687500
v 0.437500 0.000000 0.687500
v 0.437500 0.000000 0.937500
v 0.437500 0.000000 0.750000
v 0.687500 0.000000 0.750000
v 0.687500 0.000000 0.937500
v 0.437500 0.000000 0.937500
v 0.750000 0.625000 0.437500
v 0.937500 0.625000 0.437500
v 0.937500 0.000000 0.437500
v 0.750000 0.000000 0.437500
v 0.937500 0.625000 0.437500
v 0.937500 0.625000 0.687500
v 0.937500 0.000000 0.687500
v 0.937500 0.000000 0.437500
v 0.937500 0.625000 0.687500
v 0.750000 0.625000 0.687500
v 0.750000 0.000000 0.687500
v 0.937500 0.000000 0.687500
v 0.750000 0.625000 0.687500
v 0.750000 0.625000 0.437500
v 0.750000 0.000000 0.437500
v 0.750000 0.000000 0.687500
v 0.750000 0.625000 0.687500
v 0.937500 0.625000 0.687500
v 0.937500 0.625000 0.437500
v 0.750000 0.625000 0.437500
v 0.750000 0.000000 0.437500
v 0.937500 0.000000 0.437500
v 0.937500 0.000000 0.687500
v 0.750000 0.000000 0.687500
v 0.125000 1.625000 0.375000
v 0.312500 1.625000 0.375000
v 0.312500 1.000000 0.375000
v 0.125000 1.000000 0.375000
v 0.312500 1.625000 0.375000
v 0.312500 1.625000 0.562500
v 0.312500 1.000000 0.562500
v 0.312500 1.000000 0.375000
v 0.312500 1.625000 0.562500
v 0.125000 1.625000 0.562500
v 0.125000 1.000000 0.562500
v 0.312500 1.000000 0.562500
v 0.125000 1.625000 0.562500
v 0.125000 1.625000 0.375000
v 0.125000 1.000000 0.375000
v 0.125000 1.000000 0.562500
v 0.125000 1.625000 0.562500
v 0.312500 1.625000 0.562500
v 0.312500 1.625000 0.375000
v 0.125000 1.625000 0.375000
v 0.125000 1.000000 0.375000
v 0.312500 1.000000 0.375000
v 0.312500 0.000000 0.375000
v 0.125000 0.000000 0.375000
v 0.312500 1.000000 0.375000
v 0.312500 1.000000 0.562500
v 0.312500 0.000000 0.562500
v 0.312500 0.000000 0.375000
v 0.312500 1.000000 0.562500
v 0.125000 1.000000 0.562500
v 0.125000 0.000000 0.562500
v 0.312500 0.000000 0.562500
v 0.125000 1.000000 0.562500
v 0.125000 1.000000 0.375000
v 0.125000 0.000000 0.375000
v 0.125000 0.000000 0.562500
v 0.125000 0.000000 0.375000
v 0.250000 0.000000 0.375000
v 0.250000 0.000000 0.562500
v 0.125000 0.000000 0.562500

vt 0.250000 1.000000
vt 0.750000 1.000000
vt 0.750000 0.000000
vt 0.250000 0.000000
vt 0.250000 1.000000
vt 0.750000 1.000000
vt 0.750000 0.000000
vt 0.250000 0.000000
vt 0.250000 1.000000
vt 0.750000 1.000000
vt 0.750000 0.000000
vt 0.250000 0.000000
vt 0.250000 1.000000
vt 0.750000 1.000000
vt 0.750000 0.000000
vt 0.250000 0.000000
vt 0.250000 0.750000
vt 0.750000 0.750000
vt 0.750000 0.250000
vt 0.250000 0.250000
vt 0.250000 0.750000
vt 0.750000 0.750000
vt 0.750000 0.250000
vt 0.250000 0.250000
vt 0.562500 0.187500
vt 0.750000 0.187500
vt 0.750000 0.000000
vt 0.562500 0.000000
vt 0.562500 0.187500
vt 0.750000 0.187500
vt 0.750000 0.000000
vt 0.562500 0.000000
vt 0.562500 0.187500
vt 0.750000 0.187500
vt 0.750000 0.000000
vt 0.562500 0.000000
vt 0.562500 0.187500
vt 0.750000 0.187500
vt 0.750000 0.000000
vt 0.562500 0.000000
vt 0.437500 0.312500
vt 0.625000 0.312500
vt 0.625000 0.125000
vt 0.437500 0.125000
vt 0.562500 1.000000
vt 0.750000 1.000000
vt 0.750000 0.000000
vt 0.562500 0.000000
vt 0.562500 1.000000
vt 0.750000 1.000000
vt 0.750000 0.000000
vt 0.562500 0.000000
vt 0.562500 1.000000
vt 0.750000 1.000000
vt 0.750000 0.000000
vt 0.562500 0.000000
vt 0.562500 1.000000
vt 0.750000 1.000000
vt 0.750000 0.000000
vt 0.562500 0.000000
vt 0.437500 0.250000
vt 0.625000 0.250000
vt 0.625000 0.125000
vt 0.437500 0.125000
vt 0.250000 0.375000
vt 0.500000 0.375000
vt 0.500000 0.000000
vt 0.250000 0.000000
vt 0.250000 0.375000
vt 0.500000 0.375000
vt 0.500000 0.000000
vt 0.250000 0.000000
vt 0.250000 0.375000
vt 0.500000 0.375000
vt 0.500000 0.000000
vt 0.250000 0.000000
vt 0.250000 0.375000
vt 0.500000 0.375000
vt 0.500000 0.000000
vt 0.250000 0.000000
vt 0.437500 0.937500
vt 0.687500 0.937500
vt 0.687500 0.687500
vt 0.437500 0.687500
vt 0.250000 1.000000
vt 0.500000 1.000000
vt 0.500000 0.000000
vt 0.250000 0.000000
vt 0.250000 1.000000
vt 0.500000 1.000000
vt 0.500000 0.000000
vt 0.250000 0.000000
vt 0.250000 1.000000
vt 0.500000 1.000000
vt 0.500000 0.000000
vt 0.250000 0.000000
vt 0.250000 1.000000
vt 0.500000 1.000000
vt 0.500000 0.000000
vt 0.250000 0.000000
vt 0.437500 0.937500
vt 0.687500 0.937500
vt 0.687500 0.750000
vt 0.437500 0.750000
vt 0.812500 0.625000
vt 1.000000 0.625000
vt 1.000000 0.000000
vt 0.812500 0.000000
vt 0.750000 0.625000
vt 1.000000 0.625000
vt 1.000000 0.000000
vt 0.750000 0.000000
vt 0.812500 0.625000
vt 1.000000 0.625000
vt 1.000000 0.000000
vt 0.812500 0.000000
vt 0.750000 0.625000
vt 1.000000 0.625000
vt 1.000000 0.000000
vt 0.750000 0.000000
vt 0.750000 0.687500
vt 0.937500 0.687500
vt 0.937500 0.437500
vt 0.750000 0.437500
vt 0.750000 0.687500
vt 0.937500 0.687500
vt 0.937500 0.437500
vt 0.750000 0.437500
vt 0.000000 0.625000
vt 0.187500 0.625000
vt 0.187500 0.000000
vt 0.000000 0.000000
vt 0.000000 0.625000
vt 0.187500 0.625000
vt 0.187500 0.000000
vt 0.000000 0.000000
vt 0.000000 0.625000
vt 0.187500 0.625000
vt 0.187500 0.000000
vt 0.000000 0.000000
vt 0.000000 0.625000
vt 0.187500 0.625000
vt 0.187500 0.000000
vt 0.000000 0.000000
vt 0.062500 0.562500
vt 0.250000 0.562500
vt 0.250000 0.375000
vt 0.062500 0.375000
vt 0.000000 1.000000
vt 0.187500 1.000000
vt 0.187500 0.000000
vt 0.000000 0.000000
vt 0.000000 1.000000
vt 0.187500 1.000000
vt 0.187500 0.000000
vt 0.000000 0.000000
vt 0.000000 1.000000
vt 0.187500 1.000000
vt 0.187500 0.000000
vt 0.000000 0.000000
vt 0.000000 1.000000
vt 0.187500 1.000000
vt 0.187500 0.000000
vt 0.000000 0.000000
vt 0.125000 0.562500
vt 0.250000 0.562500
vt 0.250000 0.375000
vt 0.125000 0.375000

usemtl 1
f 1/1 2/2 3/3 4/4
f 5/5 6/6 7/7 8/8
f 9/9 10/10 11/11 12/12
f 13/13 14/14 15/15 16/16
f 17/17 18/18 19/19 20/20
f 21/21 22/22 23/23 24/24
f 25/25 26/26 27/27 28/28
f 29/29 30/30 31/31 32/32
f 33/33 34/34 35/35 36/36
f 37/37 38/38 39/39 40/40
f 41/41 42/42 43/43 44/44
f 45/45 46/46 47/47 48/48
f 49/49 50/50 51/51 52/52
f 53/53 54/54 55/55 56/56
f 57/57 58/58 59/59 60/60
f 61/61 62/62 63/63 64/64
f 65/65 66/66 67/67 68/68
f 69/69 70/70 71/71 72/72
f 73/73 74/74 75/75 76/76
f 77/77 78/78 79/79 80/80
f 81/81 82/82 83/83 84/84
f 85/85 86/86 87/87 88/88
f 89/89 90/90 91/91 92/92
f 93/93 94/94 95/95 96/96
f 97/97 98/98 99/99 100/100
f 101/101 102/102 103/103 104/104
f 105/105 106/106 107/107 108/108
f 109/109 110/110 111/111 112/112
f 113/113 114/114 115/115 116/116
f 117/117 118/118 119/119 120/120
f 121/121 122/122 123/123 124/124
f 125/125 126/126 127/127 128/128
f 129/129 130/130 131/131 132/132
f 133/133 134/134 135/135 136/136
f 137/137 138/138 139/139 140/140
f 141/141 142/142 143/143 144/144
f 145/145 146/146 147/147 148/148
f 149/149 150/150 151/151 152/152
f 153/153 154/154 155/155 156/156
f 157/157 158/158 159/159 160/160
f 161/161 162/162 163/163 164/164
f 165/165 166/166 167/167 168/168
